<svg width="750" height="625" viewBox="0 0 750 625" fill="none" xmlns="http://www.w3.org/2000/svg">
<g id="what to wear today">
<g id="background">
<path id="Vector" d="M375 625C582.107 625 750 580.351 750 525.273C750 470.195 582.107 425.546 375 425.546C167.893 425.546 0 470.195 0 525.273C0 580.351 167.893 625 375 625Z" fill="#F5F5F5"/>
<path id="Vector_2" d="M218.403 306.029C218.403 306.029 247.298 334.725 230.984 377.308C214.669 419.892 258.952 490.706 258.952 490.706C258.952 490.706 258.476 490.634 257.597 490.482C198.25 480.071 168.758 412.668 201.758 362.588C214.024 343.975 224.097 322.111 218.403 306.029Z" fill="#6C63FF"/>
<path id="Vector_3" d="M218.403 306.029C218.403 306.029 234.718 341.204 218.403 369.9C202.089 398.596 215.605 479.134 258.952 490.706" stroke="#535461" stroke-width="2" stroke-miterlimit="10"/>
<path id="Vector_4" d="M166.935 422.102C166.935 422.102 199.911 416.888 202.911 446.233C205.911 475.578 266.315 479.646 266.315 479.646L265.185 480.391C215.315 512.899 167.605 501.102 174.863 457.966C177.5 441.884 177.282 425.762 166.935 422.102Z" fill="#6C63FF"/>
<path id="Vector_5" opacity="0.2" d="M166.935 422.102C166.935 422.102 199.911 416.888 202.911 446.233C205.911 475.578 266.315 479.646 266.315 479.646L265.185 480.391C215.315 512.899 167.605 501.102 174.863 457.966C177.5 441.884 177.282 425.762 166.935 422.102Z" fill="#F5F5F5"/>
<path id="Vector_6" d="M166.935 422.102C166.935 422.102 192.532 427.708 190.427 450.79C188.323 473.872 228.435 501.607 266.315 479.622" stroke="#535461" stroke-width="2" stroke-miterlimit="10"/>
<path id="Vector_7" d="M443.323 31.6352H244.581C241.999 31.63 239.442 32.1299 237.055 33.1064C234.668 34.0828 232.498 35.5168 230.669 37.3263C228.84 39.1359 227.388 41.2855 226.396 43.6524C225.404 46.0193 224.891 48.5571 224.887 51.1209V483.314C224.891 485.878 225.404 488.416 226.396 490.783C227.388 493.15 228.84 495.299 230.669 497.109C232.498 498.918 234.668 500.352 237.055 501.329C239.442 502.305 241.999 502.805 244.581 502.8H443.323C445.904 502.805 448.461 502.305 450.848 501.329C453.235 500.352 455.405 498.918 457.234 497.109C459.063 495.299 460.515 493.15 461.507 490.783C462.499 488.416 463.012 485.878 463.016 483.314V51.1209C463.012 48.5571 462.499 46.0193 461.507 43.6524C460.515 41.2855 459.063 39.1359 457.234 37.3263C455.405 35.5168 453.235 34.0828 450.848 33.1064C448.461 32.1299 445.904 31.63 443.323 31.6352V31.6352Z" fill="url(#paint0_linear)"/>
<path id="Vector_8" d="M439.524 35.2473H248.371C236.403 35.2473 226.702 44.8821 226.702 56.7672V479.478C226.702 491.363 236.403 500.998 248.371 500.998H439.524C451.492 500.998 461.194 491.363 461.194 479.478V56.7672C461.194 44.8821 451.492 35.2473 439.524 35.2473Z" fill="#535461"/>
<path id="Vector_9" d="M443.927 78.5675H243.976V457.662H443.927V78.5675Z" fill="white"/>
<path id="Vector_10" d="M320.323 58.7134C321.325 58.7134 322.137 57.9066 322.137 56.9114C322.137 55.9161 321.325 55.1094 320.323 55.1094C319.32 55.1094 318.508 55.9161 318.508 56.9114C318.508 57.9066 319.32 58.7134 320.323 58.7134Z" fill="white"/>
<path id="Vector_11" d="M368.597 55.1014H330.218C329.772 55.1014 329.411 55.4599 329.411 55.9023V57.9125C329.411 58.3548 329.772 58.7134 330.218 58.7134H368.597C369.042 58.7134 369.403 58.3548 369.403 57.9125V55.9023C369.403 55.4599 369.042 55.1014 368.597 55.1014Z" fill="white"/>
<path id="Vector_12" d="M343.04 488.36C350.069 488.36 355.766 482.702 355.766 475.722C355.766 468.742 350.069 463.084 343.04 463.084C336.012 463.084 330.315 468.742 330.315 475.722C330.315 482.702 336.012 488.36 343.04 488.36Z" fill="white"/>
<path id="Vector_13" opacity="0.2" d="M135.081 69.6776H93.1451V91.3017H135.081V69.6776Z" fill="#6C63FF"/>
<path id="Vector_14" opacity="0.2" d="M164.919 94.5052H122.984V116.129H164.919V94.5052Z" fill="#6C63FF"/>
<path id="Vector_15" opacity="0.2" d="M84.2742 71.2794H42.3387V92.9035H84.2742V71.2794Z" fill="#6C63FF"/>
<path id="Vector_16" opacity="0.2" d="M393.952 0H352.016V21.6241H393.952V0Z" fill="#6C63FF"/>
<path id="Vector_17" opacity="0.2" d="M343.145 1.60178H301.21V23.2259H343.145V1.60178Z" fill="#6C63FF"/>
<path id="Vector_18" opacity="0.2" d="M218.952 119.333H177.016V140.957H218.952V119.333Z" fill="#6C63FF"/>
<path id="Vector_19" opacity="0.2" d="M168.145 120.935H126.21V142.559H168.145V120.935Z" fill="#6C63FF"/>
<path id="Vector_20" opacity="0.2" d="M114.113 96.107H72.1774V117.731H114.113V96.107Z" fill="#6C63FF"/>
<path id="Vector_21" opacity="0.2" d="M612.5 156.174H570.565V177.798H612.5V156.174Z" fill="#6C63FF"/>
<path id="Vector_22" opacity="0.2" d="M642.339 181.002H600.403V202.626H642.339V181.002Z" fill="#6C63FF"/>
<path id="Vector_23" opacity="0.2" d="M561.694 157.776H519.758V179.4H561.694V157.776Z" fill="#6C63FF"/>
<path id="Vector_24" opacity="0.2" d="M645.565 207.431H603.629V229.055H645.565V207.431Z" fill="#6C63FF"/>
<path id="Vector_25" opacity="0.2" d="M581.048 352.392H539.113V374.017H581.048V352.392Z" fill="#6C63FF"/>
<path id="Vector_26" opacity="0.2" d="M584.274 378.822H542.339V400.446H584.274V378.822Z" fill="#6C63FF"/>
<path id="Vector_27" opacity="0.2" d="M166.532 343.583H124.597V365.207H166.532V343.583Z" fill="#6C63FF"/>
<path id="Vector_28" opacity="0.2" d="M169.758 370.012H127.823V391.636H169.758V370.012Z" fill="#6C63FF"/>
<path id="Vector_29" opacity="0.2" d="M591.532 182.603H549.597V204.227H591.532V182.603Z" fill="#6C63FF"/>
<path id="Vector_30" opacity="0.2" d="M135.081 186.608H93.1451V208.232H135.081V186.608Z" fill="#6C63FF"/>
<path id="Vector_31" opacity="0.2" d="M164.919 211.435H122.984V233.06H164.919V211.435Z" fill="#6C63FF"/>
<path id="Vector_32" opacity="0.2" d="M84.2742 188.21H42.3387V209.834H84.2742V188.21Z" fill="#6C63FF"/>
<path id="Vector_33" opacity="0.2" d="M218.952 236.263H177.016V257.887H218.952V236.263Z" fill="#6C63FF"/>
<path id="Vector_34" opacity="0.2" d="M168.145 237.865H126.21V259.489H168.145V237.865Z" fill="#6C63FF"/>
<path id="Vector_35" opacity="0.2" d="M114.113 213.037H72.1774V234.661H114.113V213.037Z" fill="#6C63FF"/>
<path id="Vector_36" opacity="0.2" d="M216.532 402.849H174.597V424.473H216.532V402.849Z" fill="#6C63FF"/>
<path id="Vector_37" opacity="0.2" d="M165.726 404.45H123.79V426.074H165.726V404.45Z" fill="#6C63FF"/>
<path id="Vector_38" opacity="0.2" d="M567.339 57.6642H525.403V79.2883H567.339V57.6642Z" fill="#6C63FF"/>
<path id="Vector_39" opacity="0.2" d="M516.532 59.266H474.597V80.8901H516.532V59.266Z" fill="#6C63FF"/>
<path id="Vector_40" opacity="0.2" d="M546.371 84.0937H504.435V105.718H546.371V84.0937Z" fill="#6C63FF"/>
<path id="Vector_41" d="M556.234 579.445C556.234 579.445 545.54 543.405 558.242 516.864C563.639 505.769 565.266 493.235 562.879 481.144C561.702 475.414 559.998 469.803 557.79 464.381" stroke="#535461" stroke-width="2" stroke-miterlimit="10"/>
<path id="Vector_42" d="M565.685 447.602C565.685 452.023 557.621 464.83 557.621 464.83C557.621 464.83 549.556 452.015 549.556 447.602C549.556 445.478 550.406 443.441 551.918 441.939C553.431 440.437 555.482 439.594 557.621 439.594C559.76 439.594 561.811 440.437 563.323 441.939C564.836 443.441 565.685 445.478 565.685 447.602Z" fill="#6C63FF"/>
<path id="Vector_43" d="M579.032 472.078C576.613 475.786 562.839 482.193 562.839 482.193C562.839 482.193 563.089 467.088 565.508 463.38C566.058 462.446 566.793 461.632 567.669 460.987C568.545 460.343 569.543 459.882 570.604 459.631C571.664 459.381 572.765 459.347 573.839 459.53C574.913 459.714 575.938 460.112 576.853 460.701C577.768 461.289 578.553 462.055 579.161 462.954C579.77 463.852 580.188 464.863 580.392 465.926C580.596 466.99 580.58 468.083 580.346 469.14C580.113 470.198 579.666 471.197 579.032 472.078V472.078Z" fill="#6C63FF"/>
<path id="Vector_44" d="M578.419 513.9C574.443 515.886 559.298 514.517 559.298 514.517C559.298 514.517 567.193 501.607 571.161 499.62C572.111 499.093 573.158 498.761 574.24 498.646C575.322 498.531 576.416 498.635 577.457 498.951C578.497 499.267 579.463 499.789 580.295 500.485C581.127 501.181 581.809 502.038 582.299 503.002C582.789 503.967 583.077 505.021 583.147 506.099C583.216 507.177 583.065 508.259 582.703 509.278C582.34 510.297 581.774 511.232 581.038 512.028C580.302 512.824 579.411 513.463 578.419 513.908V513.9Z" fill="#6C63FF"/>
<path id="Vector_45" d="M570.806 545.439C567.226 548.066 552.065 549.252 552.065 549.252C552.065 549.252 557.645 535.204 561.226 532.577C562.071 531.891 563.048 531.382 564.097 531.081C565.147 530.781 566.247 530.695 567.33 530.83C568.414 530.964 569.458 531.316 570.401 531.863C571.344 532.41 572.165 533.142 572.814 534.014C573.464 534.886 573.928 535.88 574.179 536.935C574.43 537.991 574.463 539.086 574.275 540.154C574.088 541.222 573.683 542.242 573.087 543.15C572.491 544.059 571.715 544.838 570.806 545.439V545.439Z" fill="#6C63FF"/>
<path id="Vector_46" d="M545.895 483.05C549.121 486.125 563.952 489.321 563.952 489.321C563.952 489.321 560.315 474.657 557.121 471.581C556.375 470.79 555.475 470.158 554.476 469.723C553.477 469.288 552.4 469.058 551.309 469.048C550.218 469.039 549.136 469.249 548.129 469.666C547.123 470.084 546.212 470.7 545.451 471.477C544.691 472.254 544.098 473.176 543.707 474.188C543.316 475.199 543.136 476.279 543.177 477.362C543.219 478.444 543.481 479.507 543.948 480.486C544.415 481.466 545.078 482.34 545.895 483.058V483.05Z" fill="#6C63FF"/>
<path id="Vector_47" d="M537.46 520.051C541.436 522.037 556.581 520.668 556.581 520.668C556.581 520.668 548.686 507.757 544.718 505.771C543.768 505.244 542.721 504.912 541.639 504.797C540.557 504.682 539.463 504.786 538.422 505.102C537.382 505.418 536.416 505.94 535.584 506.636C534.752 507.332 534.07 508.188 533.58 509.153C533.09 510.118 532.802 511.171 532.732 512.25C532.663 513.328 532.814 514.41 533.176 515.428C533.539 516.447 534.105 517.383 534.841 518.179C535.577 518.975 536.468 519.614 537.46 520.059V520.051Z" fill="#6C63FF"/>
<path id="Vector_48" d="M534.234 557.132C537.814 559.759 552.976 560.945 552.976 560.945C552.976 560.945 547.395 546.897 543.814 544.27C542.092 543.129 539.993 542.689 537.952 543.043C535.912 543.396 534.087 544.516 532.855 546.169C531.624 547.823 531.08 549.884 531.336 551.925C531.593 553.966 532.63 555.83 534.234 557.132Z" fill="#6C63FF"/>
<path id="Vector_49" d="M294.355 416.76C294.355 416.76 287.234 392.733 295.694 375.058C299.29 367.664 300.373 359.312 298.782 351.255C297.997 347.436 296.86 343.696 295.387 340.083" stroke="#535461" stroke-width="2" stroke-miterlimit="10"/>
<path id="Vector_50" d="M300.661 328.91C300.661 331.858 295.29 340.387 295.29 340.387C295.29 340.387 289.919 331.85 289.919 328.91C289.891 328.193 290.009 327.477 290.267 326.806C290.524 326.136 290.914 325.523 291.416 325.006C291.917 324.488 292.518 324.077 293.183 323.796C293.848 323.515 294.563 323.37 295.286 323.37C296.009 323.37 296.725 323.515 297.39 323.796C298.055 324.077 298.656 324.488 299.157 325.006C299.658 325.523 300.049 326.136 300.306 326.806C300.563 327.477 300.681 328.193 300.653 328.91H300.661Z" fill="#6C63FF"/>
<path id="Vector_51" d="M309.532 345.216C307.919 347.691 298.742 351.96 298.742 351.96C298.742 351.96 298.911 341.901 300.516 339.426C301.32 338.31 302.525 337.544 303.882 337.288C305.239 337.032 306.644 337.305 307.803 338.051C308.963 338.796 309.789 339.957 310.109 341.291C310.43 342.626 310.22 344.031 309.524 345.216H309.532Z" fill="#6C63FF"/>
<path id="Vector_52" d="M309.145 373.079C306.5 374.401 296.403 373.488 296.403 373.488C296.403 373.488 301.661 364.886 304.306 363.557C305.569 362.986 307.004 362.922 308.313 363.379C309.622 363.835 310.702 364.777 311.327 366.006C311.952 367.236 312.074 368.658 311.668 369.975C311.261 371.292 310.357 372.401 309.145 373.071V373.079Z" fill="#6C63FF"/>
<path id="Vector_53" d="M304.032 394.103C301.613 395.857 291.548 396.642 291.548 396.642C291.548 396.642 295.266 387.279 297.653 385.533C298.218 385.088 298.866 384.76 299.561 384.569C300.256 384.378 300.982 384.328 301.696 384.422C302.411 384.515 303.099 384.751 303.72 385.114C304.341 385.478 304.882 385.961 305.311 386.537C305.74 387.112 306.048 387.767 306.216 388.463C306.385 389.159 306.41 389.881 306.292 390.587C306.173 391.293 305.913 391.968 305.526 392.572C305.139 393.176 304.634 393.697 304.04 394.103H304.032Z" fill="#6C63FF"/>
<path id="Vector_54" d="M287.476 352.545C289.605 354.595 299.508 356.717 299.508 356.717C299.508 356.717 297.089 346.946 294.96 344.896C293.926 343.977 292.575 343.491 291.189 343.539C289.803 343.587 288.489 344.166 287.523 345.155C286.557 346.143 286.013 347.464 286.006 348.842C285.999 350.219 286.528 351.546 287.484 352.545H287.476Z" fill="#6C63FF"/>
<path id="Vector_55" d="M281.855 377.18C284.5 378.501 294.597 377.588 294.597 377.588C294.597 377.588 289.339 368.987 286.694 367.657C286.061 367.308 285.365 367.089 284.645 367.013C283.926 366.938 283.198 367.008 282.506 367.218C281.815 367.429 281.173 367.776 280.62 368.239C280.066 368.703 279.613 369.272 279.287 369.913C278.961 370.555 278.768 371.255 278.721 371.972C278.674 372.689 278.774 373.408 279.014 374.086C279.254 374.764 279.629 375.387 280.117 375.917C280.605 376.447 281.196 376.874 281.855 377.172V377.18Z" fill="#6C63FF"/>
<path id="Vector_56" d="M279.702 401.888C282.121 403.642 292.185 404.426 292.185 404.426C292.185 404.426 288.468 395.064 286.081 393.318C285.516 392.873 284.867 392.545 284.173 392.354C283.478 392.163 282.752 392.113 282.038 392.207C281.323 392.3 280.635 392.536 280.014 392.899C279.393 393.262 278.852 393.746 278.423 394.321C277.994 394.897 277.686 395.552 277.518 396.248C277.349 396.944 277.324 397.666 277.442 398.372C277.561 399.078 277.821 399.753 278.208 400.357C278.595 400.961 279.1 401.482 279.694 401.888H279.702Z" fill="#6C63FF"/>
<path id="Vector_57" d="M393.024 265.247L390.726 237.865C391.561 237.596 392.34 237.178 393.024 236.632L392.766 235.719C392.855 235.654 392.944 235.598 393.024 235.534L389.145 221.775C389.145 221.775 387.121 205.012 387.024 196.603C387.024 194.817 387.177 193.56 387.484 193.151C387.976 192.494 388.129 190.748 388.097 188.538C388.097 187.233 388.097 185.719 387.944 184.173C388.532 180.225 388.903 172.368 383.452 168.46C387.546 161.939 389.679 154.392 389.597 146.707C389.597 127.734 377.427 112.357 362.419 112.357C347.411 112.357 335.242 127.734 335.242 146.707C335.213 152.585 336.439 158.402 338.839 163.774C335.282 164.231 328.661 165.656 327.065 170.029C324.847 176.084 299.911 210.21 299.911 210.21V225.075C303.135 225.698 306.43 225.87 309.702 225.587L331.476 245.986C331.476 245.986 332.589 245.826 334.29 245.481C333.098 252.09 332.485 258.79 332.46 265.504C332.384 270.036 332.801 274.563 333.702 279.007C333.702 279.007 341.661 298.885 341.935 310.634C341.932 311.836 341.78 313.033 341.484 314.198L341.718 314.246C341.653 314.614 341.581 314.967 341.484 315.303C341.484 315.303 343.145 315.631 345.831 315.992L347.581 328.518C347.581 328.518 348.685 352.184 352.016 355.484L354.371 363.893L353.911 365.871C353.911 365.871 347.871 384.38 346.097 387.071C345.024 388.256 344.331 392.765 345.75 395.512C346.034 396.147 346.492 396.688 347.073 397.074C347.654 397.459 348.334 397.673 349.032 397.691C354.282 397.971 356.75 397.755 360.411 388.537L360.919 387.247L361.798 390.387L361.46 390.715C361.46 390.715 363.403 409.704 362.016 413.284C361.129 415.583 363.677 423.744 368.669 422.094C373.661 420.444 375.806 419.323 375.806 409.408C375.806 399.493 372.758 388.216 371.097 385.469C370.986 385.284 370.823 385.134 370.629 385.037C369.153 377.132 366.919 364.59 366.806 360.209L375.331 328.974C376.011 326.477 376.51 323.934 376.823 321.366L377.726 313.974C379.393 313.321 380.979 312.48 382.452 311.467C382.452 311.467 382.452 311.074 382.452 310.394C382.452 310.394 382.387 309.056 382.371 306.894C382.371 301.015 382.879 290.692 385.597 283.099C386.161 286.071 387.21 288.201 389.105 287.825C394.685 286.679 393.024 265.247 393.024 265.247ZM386.194 238.49H386.645L386.548 240.564C386.43 239.843 386.309 239.141 386.185 238.458L386.194 238.49ZM337.806 229.864C336.879 234.117 331.532 234.974 331.532 234.974L319.75 221.919C320.413 221.379 321.019 220.773 321.556 220.109C321.556 220.109 321.242 220.045 320.75 219.901C321.032 219.621 321.298 219.324 321.556 219.004C321.556 219.004 315.492 217.859 315.04 213.286C315.186 211.684 315.944 209.786 317.677 207.447L332.089 191.485C332.089 191.485 340.79 197.676 340.96 213.95C340.927 216.379 340.731 218.803 340.371 221.206C340.371 221.206 339.21 224.554 337.782 229.856L337.806 229.864Z" fill="url(#paint1_linear)"/>
<path id="Vector_58" d="M389.347 232.915L392.064 265.247C392.064 265.247 393.677 286.271 388.266 287.344C382.855 288.417 384.468 268.475 384.468 268.475L386.081 232.899L389.347 232.915Z" fill="#FFB296"/>
<path id="Vector_59" opacity="0.1" d="M392.065 237.216L388.266 223.737C388.266 223.737 385.04 196.787 386.653 194.633C388.266 192.478 386.113 177.926 386.113 177.926L379.331 187.088L377.419 205.981L382.839 238.818C382.839 238.818 388.806 239.923 392.065 237.216Z" fill="black"/>
<path id="Vector_60" d="M362.097 182.804C376.795 182.804 388.71 167.744 388.71 149.166C388.71 130.589 376.795 115.529 362.097 115.529C347.399 115.529 335.484 130.589 335.484 149.166C335.484 167.744 347.399 182.804 362.097 182.804Z" fill="#632652"/>
<path id="Vector_61" opacity="0.05" d="M353.742 363.829C353.742 363.829 347.831 381.953 346.089 384.588C344.758 386.607 343.823 394.712 348.96 395C354.097 395.288 356.516 395.064 360.105 386.038C363.694 377.012 367.363 366.28 366.847 363.18C366.331 360.081 353.742 363.829 353.742 363.829Z" fill="black"/>
<path id="Vector_62" d="M375.242 134.278H344.847V168.772H375.242V134.278Z" fill="#632652"/>
<path id="Vector_63" opacity="0.1" d="M375.242 134.278H344.847V168.772H375.242V134.278Z" fill="black"/>
<path id="Vector_64" d="M352.419 146.131C352.419 146.131 355.645 159.61 352.419 162.837C352.419 162.837 345.903 166.61 344.274 165.536C342.645 164.463 336.129 167.691 336.129 167.691L346.444 190.332L368.153 191.934L379.548 188.73V176.348L379.008 168.804C379.008 168.804 365.984 168.804 366.524 163.951C367.065 159.097 368.137 146.163 368.137 146.163L352.419 146.131Z" fill="#FFB296"/>
<path id="Vector_65" d="M377.952 306.221L376.242 320.229C375.936 322.743 375.448 325.232 374.782 327.677L361.669 375.73L352.984 367.137L362.75 325.09L365.468 300.831L377.952 306.221Z" fill="#FFB296"/>
<path id="Vector_66" opacity="0.05" d="M377.952 306.221L376.242 320.229C375.936 322.743 375.448 325.232 374.782 327.677L361.669 375.73L352.984 367.137L362.75 325.09L365.468 300.831L377.952 306.221Z" fill="black"/>
<path id="Vector_67" d="M344.847 307.839L347.581 327.244C347.581 327.244 348.669 350.422 351.919 353.674L362.774 392.485L371.46 389.282C371.46 389.282 365.492 359.096 366.573 356.941C367.653 354.787 365.484 336.455 365.484 336.455V324.009C365.484 324.009 365.484 311.611 364.944 307.839C364.403 304.067 344.847 307.839 344.847 307.839Z" fill="#FFB296"/>
<path id="Vector_68" opacity="0.1" d="M349.589 183.973C347.379 184.069 343.589 181.77 341.25 166.762C341.25 166.762 329.645 167.162 327.476 173.089C325.306 179.015 300.863 212.437 300.863 212.437V225.916C300.863 225.916 315.516 229.119 322.032 221.062C322.032 221.062 310.637 218.908 318.234 208.664L332.347 193.031C332.347 193.031 343.742 201.12 340.492 223.217C340.492 223.217 329.097 256.093 333.976 278.734C333.976 278.734 344.29 304.611 341.573 314.31C341.573 314.31 368.71 319.7 381.734 310.538C381.734 310.538 380.645 288.978 386.621 278.734C392.597 268.491 381.734 222.135 381.734 222.135C381.734 222.135 375.073 209.081 379.419 204.227C383.766 199.374 380.226 188.21 380.226 188.21C380.226 188.21 390.96 173.081 379.024 169.853C379.024 169.853 380.637 187.104 373.056 184.942L359.484 183.933C356.188 183.754 352.883 183.768 349.589 183.973V183.973Z" fill="black"/>
<path id="Vector_69" d="M317.742 219.981L331.815 235.614C331.815 235.614 337.056 234.813 337.96 230.609C337.96 230.609 354.605 232.379 350.806 238.305C347.008 244.232 331.806 246.394 331.806 246.394L303.581 219.965L317.742 219.981Z" fill="#FFB296"/>
<path id="Vector_70" opacity="0.1" d="M367.064 159.65C367.597 154.044 368.185 146.948 368.185 146.948H352.419C353.219 150.367 353.702 153.852 353.863 157.359C355.772 158.644 357.933 159.513 360.204 159.908C362.476 160.302 364.806 160.215 367.04 159.65H367.064Z" fill="black"/>
<path id="Vector_71" d="M363.024 159.337C372.017 159.337 379.306 152.098 379.306 143.167C379.306 134.237 372.017 126.997 363.024 126.997C354.032 126.997 346.742 134.237 346.742 143.167C346.742 152.098 354.032 159.337 363.024 159.337Z" fill="#FFB296"/>
<path id="Vector_72" opacity="0.1" d="M304.411 223.481C304.411 223.481 312.903 229.207 321.137 221.999L314.685 216.986H303.863L304.411 223.481Z" fill="black"/>
<path id="Vector_73" opacity="0.1" d="M382.024 194.376C382.644 199.578 382.451 204.843 381.452 209.986C379.839 219.148 379.992 231.009 382.347 233.164" fill="black"/>
<path id="Vector_74" opacity="0.1" d="M341.935 136.176C341.935 136.176 346.774 141.782 359.677 139.66C367.446 138.405 375.385 138.641 383.065 140.356L379.839 131.306L370.968 124.338H358.065L346.774 131.306L341.935 136.176Z" fill="black"/>
<path id="Vector_75" d="M341.935 135.375C341.935 135.375 346.774 140.981 359.677 138.859C367.446 137.604 375.385 137.84 383.065 139.555L379.839 130.505L370.968 123.538H358.065L346.774 130.505L341.935 135.375Z" fill="#632652"/>
<path id="Vector_76" d="M585.984 265.912C580.984 255.308 548.5 216.145 548.5 216.145L531.839 197.38L527.605 196.082C529.967 187.762 531.15 179.155 531.121 170.51C531.121 170.238 531.121 169.965 531.121 169.709C531.121 169.453 531.121 169.164 531.121 168.908C531.121 134.133 512.847 105.942 490.298 105.942C476.21 105.942 463.782 116.954 456.427 133.701C452.448 142.853 450.451 152.733 450.564 162.701C450.47 170.386 451.558 178.04 453.79 185.398C455.056 189.595 456.331 193.616 457.653 197.412L457.266 197.644L440.202 203.915C440.202 203.915 433.984 210.49 434.242 223.625C434.192 229.129 435.081 234.602 436.871 239.811C438.328 244.752 439.035 249.88 438.968 255.028C438.766 278.71 429.379 308.335 429.379 308.335L429.798 308.608C429.532 309.489 429.379 309.969 429.379 309.969C431.061 311.059 432.809 312.046 434.613 312.924L431.871 349.125C431.871 349.125 422.71 373.6 436.871 382.57L441.871 350.751L448.048 316.881C448.765 316.923 449.484 316.923 450.202 316.881C450.403 316.881 450.605 316.833 450.806 316.817C448.282 320.141 444.145 328.494 444.355 347.443C444.355 348.772 444.355 350.142 444.403 351.584C444.403 351.584 461.064 427.452 460.234 430.72C460.234 430.72 460.855 430.776 461.903 430.84V447.05C461.903 447.05 459.403 472.342 467.734 491.9C468.637 494.03 469.452 496.185 470.153 498.307C470.153 498.852 470.153 499.42 470.202 500.029C470.653 506.212 469.637 508.334 468.589 508.975C468.076 509.257 467.654 509.675 467.369 510.184C467.084 510.692 466.948 511.269 466.976 511.85C467.242 514.877 468 519.362 470.202 520.428C471.645 521.132 473.718 521.693 475.798 522.686C476.702 529.173 476.863 533.474 476.863 533.474L478.532 545.712H478.589C478.465 546.799 478.446 547.896 478.532 548.987C478.984 555.17 477.968 557.293 476.919 557.933C476.407 558.215 475.984 558.634 475.699 559.142C475.414 559.65 475.278 560.227 475.306 560.808C475.573 563.836 476.331 568.321 478.532 569.386C481.863 570.988 488.532 571.837 491.024 579.173C493.516 586.509 496.855 579.173 496.855 579.173C496.345 576.306 496.215 573.384 496.468 570.483C496.908 566.893 496.978 563.268 496.677 559.663C496.604 557.153 496.945 554.648 497.685 552.247C498.492 548.939 497.621 543.741 494.669 540.482C493.411 533.65 490.363 516.343 491.024 513.083C491.202 512.202 491.153 508.638 490.96 503.593C499.097 482.85 512.79 446.113 511.016 438.024C510.21 434.324 510.363 428.998 510.935 423.496L523.508 417.633C523.508 417.633 524.532 381.329 530.169 371.133C532.081 367.673 532.815 359.753 532.766 350.31C532.704 337.86 531.747 325.431 529.903 313.117C532.677 312.884 535.992 312.051 540.161 309.112L575.355 282.386C578.306 283.764 581.871 283.892 585.984 281.377C585.984 281.377 588.492 279.736 588.177 274.97C588.339 272.896 587.903 269.933 585.984 265.912ZM534.371 300.535C531.04 299.734 526.04 290.604 526.04 288.129C526.04 285.654 522.306 288.081 522.29 288.129C520.667 281.753 519.83 275.204 519.798 268.627C519.919 256.141 522.903 242.943 531.895 236.872L565.218 269.14C565.218 269.14 565.339 269.452 565.573 269.989C557.702 278.614 537.032 301.207 534.339 300.535H534.371Z" fill="url(#paint2_linear)"/>
<path id="Vector_77" d="M479.484 486.141C479.484 486.141 470.613 486.141 471.419 497.354C471.855 503.425 470.871 505.507 469.879 506.164C469.383 506.447 468.976 506.861 468.703 507.36C468.429 507.859 468.301 508.424 468.331 508.991C468.589 511.962 469.323 516.367 471.419 517.408C474.645 519.01 481.097 519.811 483.516 527.019C485.935 534.227 489.161 527.019 489.161 527.019C488.666 524.204 488.539 521.337 488.782 518.489C489.211 514.965 489.281 511.408 488.992 507.87C488.921 505.407 489.25 502.948 489.968 500.589C491.177 495.352 488.355 485.34 479.484 486.141Z" fill="#632652"/>
<path id="Vector_78" opacity="0.05" d="M479.484 486.141C479.484 486.141 470.613 486.141 471.419 497.354C471.855 503.425 470.871 505.507 469.879 506.164C469.383 506.447 468.976 506.861 468.703 507.36C468.429 507.859 468.301 508.424 468.331 508.991C468.589 511.962 469.323 516.367 471.419 517.408C474.645 519.01 481.097 519.811 483.516 527.019C485.935 534.227 489.161 527.019 489.161 527.019C488.666 524.204 488.539 521.337 488.782 518.489C489.211 514.965 489.281 511.408 488.992 507.87C488.921 505.407 489.25 502.948 489.968 500.589C491.177 495.352 488.355 485.34 479.484 486.141Z" fill="#632652"/>
<path id="Vector_79" d="M566.581 269.1C566.581 269.1 536.742 302.737 533.516 301.936C530.29 301.135 525.452 292.326 525.452 289.923C525.452 287.52 521.823 289.923 521.823 289.923C521.823 289.923 523.032 313.95 526.258 313.95C529.484 313.95 533.516 313.95 539.161 309.945L578.677 279.511L566.581 269.1Z" fill="#FFB296"/>
<path id="Vector_80" d="M437.548 305.941L434.323 349.189C434.323 349.189 425.452 373.216 439.161 382.025L444 350.791L452.065 305.941H437.548Z" fill="#FFB296"/>
<path id="Vector_81" d="M514.968 398.844C514.968 398.844 508.516 425.274 510.935 436.486C513.355 447.699 485.935 514.973 485.935 514.973L476.258 505.363L482.71 430.88L490.774 368.41L514.968 398.844Z" fill="#FFB296"/>
<path id="Vector_82" opacity="0.05" d="M514.968 398.844C514.968 398.844 508.516 425.274 510.935 436.486C513.355 447.699 485.935 514.973 485.935 514.973L476.258 505.363L482.71 430.88L490.774 368.41L514.968 398.844Z" fill="black"/>
<path id="Vector_83" d="M463.355 420.468V445.296C463.355 445.296 460.935 470.124 469 489.345C477.065 508.566 477.871 530.19 477.871 530.19L479.484 542.204L495.613 539.801C495.613 539.801 490.774 514.173 491.581 510.168C492.387 506.164 488.355 445.296 488.355 445.296C488.355 445.296 491.581 423.672 489.968 414.862C488.355 406.052 481.903 395.641 481.903 395.641L463.355 420.468Z" fill="#FFB296"/>
<path id="Vector_84" d="M487.548 534.195C487.548 534.195 478.677 534.195 479.484 545.407C479.919 551.478 478.935 553.56 477.944 554.217C477.448 554.5 477.041 554.915 476.767 555.414C476.494 555.913 476.365 556.477 476.395 557.044C476.653 560.016 477.387 564.42 479.484 565.462C482.71 567.063 489.161 567.864 491.581 575.072C494 582.28 497.226 575.072 497.226 575.072C496.731 572.257 496.604 569.39 496.847 566.543C497.275 563.019 497.345 559.461 497.056 555.923C496.985 553.46 497.315 551.002 498.032 548.643C499.242 543.405 496.419 533.394 487.548 534.195Z" fill="#632652"/>
<path id="Vector_85" d="M491.581 179.4C504.942 179.4 515.774 168.643 515.774 155.373C515.774 142.103 504.942 131.346 491.581 131.346C478.219 131.346 467.387 142.103 467.387 155.373C467.387 168.643 478.219 179.4 491.581 179.4Z" fill="#FFB296"/>
<path id="Vector_86" d="M503.677 159.377C503.677 159.377 496.419 193.015 523.839 201.024C551.258 209.033 493.194 218.643 493.194 218.643L452.065 204.227C452.065 204.227 498.032 181.802 486.742 159.377H503.677Z" fill="#FFB296"/>
<path id="Vector_87" opacity="0.1" d="M491.581 205.028L458.871 202.874L442.355 209.033C442.355 209.033 431.871 220.245 439.129 242.67C446.387 265.095 431.871 311.547 431.871 311.547C431.871 311.547 442.758 318.979 452.032 318.33C452.848 318.275 453.658 318.149 454.452 317.954C454.452 317.954 445.581 323.56 446.387 352.392C446.387 352.392 462.516 426.875 461.71 430.079C461.71 430.079 479.452 431.681 485.903 427.676C485.903 427.676 490.742 385.229 495.581 385.229C495.581 385.229 506.871 419.667 506.065 425.274L523 417.265C523 417.265 523.992 381.625 529.452 371.614C535.452 360.602 529.452 303.538 524.613 298.733C519.774 293.927 513.323 253.082 531.065 241.068L563.323 272.303C563.323 272.303 570.581 291.525 583.484 283.516C583.484 283.516 588.323 280.312 583.484 269.901C578.645 259.489 547.194 221.046 547.194 221.046L531.065 202.626L518.161 198.621C518.161 198.621 500.452 212.236 491.581 205.028Z" fill="black"/>
<path id="Vector_88" d="M491.581 202.626L458.871 200.471L442.355 206.63C442.355 206.63 431.871 217.843 439.129 240.268C446.387 262.693 431.871 309.144 431.871 309.144C431.871 309.144 442.758 316.577 452.032 315.928C452.848 315.872 453.658 315.747 454.452 315.551C454.452 315.551 445.581 321.158 446.387 349.99C446.387 349.99 462.516 424.473 461.71 427.676C461.71 427.676 479.452 429.278 485.903 425.274C485.903 425.274 490.742 382.826 495.581 382.826C495.581 382.826 506.871 417.265 506.065 422.871L523 414.862C523 414.862 523.992 379.222 529.452 369.211C535.452 358.199 529.452 301.135 524.613 296.33C519.774 291.525 513.323 250.679 531.065 238.666L563.323 269.901C563.323 269.901 570.581 289.122 583.484 281.113C583.484 281.113 588.323 277.909 583.484 267.498C578.645 257.086 547.194 218.643 547.194 218.643L531.065 200.223L518.161 196.219C518.161 196.219 500.452 209.834 491.581 202.626Z" fill="#AA85A0"/>
<path id="Vector_89" opacity="0.1" d="M458.113 231.858C458.113 231.858 460.532 261.491 462.952 268.699C465.371 275.907 458.113 312.748 458.113 312.748" fill="black"/>
<path id="Vector_90" opacity="0.1" d="M458.113 139.291C451.519 154.877 450.609 172.261 455.54 188.442C463.677 215.792 472.242 235.694 490.887 235.694C512.71 235.694 530.403 208.016 530.403 173.882C530.403 139.748 512.71 112.069 490.887 112.069C477.242 112.037 465.218 122.849 458.113 139.291Z" fill="black"/>
<path id="Vector_91" d="M458.113 137.689C451.519 153.276 450.609 170.659 455.54 186.84C463.677 214.191 472.242 234.093 490.887 234.093C512.71 234.093 530.403 206.414 530.403 172.28C530.403 138.146 512.71 110.467 490.887 110.467C477.242 110.435 465.218 121.247 458.113 137.689Z" fill="#632652"/>
<circle id="btn-blue" cx="682" cy="62" r="20" fill="#6C63FF"/>
</g>
<g id="cipele_mob">
<path id="cipela2" d="M353.742 363.829C353.742 363.829 347.702 382.794 346.089 384.588C344.476 386.382 343.823 394.712 348.96 395C354.097 395.288 356.516 395.064 360.105 386.038C363.694 377.012 367.363 366.28 366.847 363.18C366.331 360.081 353.742 363.829 353.742 363.829Z" fill="#632652"/>
<path id="cipela" d="M361.129 388.152C361.129 388.152 363.032 406.749 361.669 410.249C360.798 412.499 363.282 420.492 368.185 418.874C373.089 417.257 375.242 416.175 375.242 406.477C375.242 396.778 372.258 385.726 370.629 383.027C369 380.328 361.129 388.152 361.129 388.152Z" fill="#632652"/>
</g>
<g id="haljina_mob">
<path id="Vector_92" d="M392.065 236.151L388.266 222.672C388.266 222.672 385.04 195.722 386.653 193.568C388.266 191.413 386.113 176.861 386.113 176.861L379.331 186.023L377.419 204.884L382.847 237.761C382.847 237.761 388.806 238.818 392.065 236.151Z" fill="#AA85A0"/>
<path id="haljina" d="M349.727 182.978C347.509 183.074 343.703 180.777 341.355 165.785C341.355 165.785 329.704 166.185 327.526 172.105C325.348 178.025 300.806 211.411 300.806 211.411V224.876C300.806 224.876 315.518 228.076 322.061 220.028C322.061 220.028 310.62 217.876 318.247 207.643L332.416 192.026C332.416 192.026 343.857 200.107 340.594 222.18C340.594 222.18 329.153 255.022 334.052 277.639C334.052 277.639 344.408 303.489 341.679 313.177C341.679 313.177 368.925 318.561 382.001 309.409C382.001 309.409 380.908 287.872 386.908 277.639C392.908 267.406 382.001 221.1 382.001 221.1C382.001 221.1 377.095 208.715 381.459 203.867C385.823 199.019 382.001 187.178 382.001 187.178L386.908 188.258C386.908 188.258 391.264 172.105 379.281 168.873C379.281 168.873 380.9 186.106 373.289 183.946L359.662 182.938C356.353 182.759 353.035 182.773 349.727 182.978Z" fill="#AA85A0"/>
<path id="Vector_93" d="M303.863 222.944C303.863 222.944 312.363 228.663 320.597 221.495L314.145 216.481H303.323L303.863 222.944Z" fill="#AA85A0"/>
</g>
</g>
<defs>
<linearGradient id="paint0_linear" x1="343.952" y1="502.8" x2="343.952" y2="31.6352" gradientUnits="userSpaceOnUse">
<stop stop-color="#808080" stop-opacity="0.25"/>
<stop offset="0.54" stop-color="#808080" stop-opacity="0.12"/>
<stop offset="1" stop-color="#808080" stop-opacity="0.1"/>
</linearGradient>
<linearGradient id="paint1_linear" x1="53017.9" y1="182084" x2="53017.9" y2="62122" gradientUnits="userSpaceOnUse">
<stop stop-color="#808080" stop-opacity="0.25"/>
<stop offset="0.54" stop-color="#808080" stop-opacity="0.12"/>
<stop offset="1" stop-color="#808080" stop-opacity="0.1"/>
</linearGradient>
<linearGradient id="paint2_linear" x1="106634" y1="233377" x2="138082" y2="233377" gradientUnits="userSpaceOnUse">
<stop stop-color="#808080" stop-opacity="0.25"/>
<stop offset="0.54" stop-color="#808080" stop-opacity="0.12"/>
<stop offset="1" stop-color="#808080" stop-opacity="0.1"/>
</linearGradient>
</defs>
</svg>
